<?xml version="1.0" standalone="no"?><!DOCTYPE svg PUBLIC "-//W3C//DTD SVG 1.1//EN" "http://www.w3.org/Graphics/SVG/1.1/DTD/svg11.dtd"><svg t="1782371041252" class="icon" viewBox="0 0 1024 1024" version="1.1" xmlns="http://www.w3.org/2000/svg" p-id="1734" xmlns:xlink="http://www.w3.org/1999/xlink" width="200" height="200"><path d="M214.46867 167.004292c-39.553648 4.834335-79.107296 16.700429-86.139056 25.490129-3.955365 5.27382-5.27382 70.757082-5.27382 291.37854v284.346781l78.228326-2.197424c68.120172-2.197425 83.502146-0.87897 123.495279 7.031759 53.177682 11.426609 86.139056 23.732189 133.603434 51.419743 18.897854 10.547639 35.598283 18.897854 37.356223 17.579399 5.713305-3.076395 2.63691-575.285837-2.63691-585.833477-14.063519-25.490129-87.896996-67.680687-141.514163-79.986266-45.706438-10.547639-98.00515-14.063519-137.119313-9.229184z m147.666952 177.991416c39.114163 10.547639 72.954506 26.808584 72.954507 35.158798 0 3.955365-2.197425 10.987124-4.39485 15.381975-4.39485 7.91073-5.27382 7.91073-34.279828-2.63691-46.145923-17.579399-89.215451-24.611159-143.711588-22.853219l-48.343348 1.318455V355.982833c0-14.063519 1.318455-15.821459 15.381974-18.458369 24.171674-4.834335 113.826609 0 142.393133 7.471244z m19.337339 131.845494c46.145923 15.381974 55.814592 22.853219 51.859228 38.674678-3.51588 14.063519-8.7897 14.503004-34.279828 3.51588-39.114163-16.700429-82.183691-23.732189-140.635194-23.292704H202.16309V483.433476c0-20.216309 8.7897-22.413734 79.107296-20.655794 55.375107 1.318455 68.559657 3.51588 100.202575 14.06352zM364.333047 597.699571c33.840343 9.66867 63.725322 22.853219 68.559657 30.763948 1.75794 2.63691 1.75794 10.108155 0 16.260945-3.076395 12.745064-2.63691 12.745064-61.527897-7.91073-36.477253-13.184549-43.948498-14.063519-103.27897-14.942489-66.801717-1.318455-68.999142-2.197425-64.164807-21.974249 3.51588-13.184549 13.184549-14.942489 77.349356-13.18455 33.840343 1.318455 61.088412 4.834335 83.062661 10.987125zM720.755365 167.443777c-66.801717 7.471245-138.437768 38.235193-176.233477 75.151931-15.381974 15.381974-16.260944 18.018884-18.897854 52.738198-3.076395 41.751073-1.318455 546.719313 1.75794 549.795708 1.318455 1.318455 14.942489-5.713305 30.763949-15.381975 72.954506-44.827468 127.890129-61.088412 219.742489-63.725321 35.158798-1.318455 74.712446-0.439485 87.896996 1.75794 13.624034 2.197425 26.808584 3.51588 29.884978 2.197424 7.91073-2.63691 7.471245-567.375107 0-577.922746-13.184549-17.579399-112.947639-31.642918-174.915021-24.611159z m85.699571 170.520171c11.426609 2.197425 13.184549 4.834335 13.184549 17.5794v14.942489l-63.725322 0.87897c-55.814592 0.439485-68.120172 2.197425-101.081545 12.745064-52.738197 17.139914-61.088412 18.018884-64.164807 9.66867-5.713305-14.503004 9.66867-27.248069 47.464378-39.553648 20.216309-6.592275 46.585408-13.624034 58.451502-15.381975 25.929614-4.39485 91.412876-4.834335 109.871245-0.87897z m10.108154 128.769099c3.076395 3.076395 5.27382 10.547639 5.27382 17.139914v11.866095l-55.814592-0.439485c-57.572532 0-79.986266 3.955365-141.074679 24.611159-24.171674 7.91073-28.127039 8.350215-31.642918 3.076394-6.15279-9.229185-5.27382-15.821459 2.197425-23.732188 8.7897-8.7897 50.980258-24.171674 85.699571-31.203434 37.356223-7.471245 128.329614-8.350215 135.361373-1.318455z m-7.910729 121.737339c8.7897 2.63691 10.987124 5.713305 10.987124 17.579399v14.503005l-61.527897 0.87897c-61.527897 1.318455-92.73133 7.471245-145.909013 29.445493-17.579399 7.03176-25.050644 1.75794-20.655794-15.381974 6.15279-24.611159 91.412876-49.661803 168.762232-50.101288 20.655794 0 42.190558 1.318455 48.343348 3.076395z" p-id="1735" fill="#515151"></path><path d="M79.107296 271.601717c-6.15279 0.87897-14.503004 4.834335-18.458369 8.350214-7.471245 6.592275-7.91073 25.929614-7.91073 285.225751v278.193992l11.42661 8.789699c11.866094 9.229185 14.942489 9.229185 204.360515 8.350215 124.374249-0.87897 193.373391-3.076395 193.812875-5.713305 0.87897-7.03176-79.546781-45.266953-117.342489-54.935622-44.827468-12.305579-143.711588-16.700429-195.13133-9.229185-28.127039 4.39485-37.795708 4.39485-42.630043 0-5.27382-4.39485-6.15279-44.387983-6.15279-261.054077 0-274.238627 0.87897-261.493562-21.974249-257.977682zM922.918455 529.139914c0 221.060944-0.87897 257.098712-6.592275 261.933047-5.27382 4.39485-14.063519 4.39485-42.630043 0-51.859227-7.91073-140.635193-3.955365-191.175965 8.350215-41.311588 10.108155-123.055794 47.464378-121.297854 55.375107 1.318455 4.39485 368.727897 8.7897 386.746781 4.39485 24.171674-5.713305 23.292704 7.471245 23.292704-294.454936 0-311.155365 2.197425-292.257511-31.203434-292.25751H922.918455v256.659227z" p-id="1736" fill="#515151"></path></svg>